<svg xmlns="http://www.w3.org/2000/svg" viewBox="0 0 1880.85 2153.69"><defs><style>.cls-1{fill:#fff;}.cls-1,.cls-2,.cls-3{stroke:#000;stroke-miterlimit:10;stroke-width:10px;}.cls-2{fill:#eb6c40;}.cls-3{fill:#b4dded;}</style></defs><g id="Layer_2" data-name="Layer 2"><g id="Layer_1-2" data-name="Layer 1"><polygon class="cls-1" points="589.62 346.24 340.8 494.36 163.9 742.64 112.75 1048.47 177.22 1408.12 347.19 1772.03 693.51 1924.41 1064.35 1966.5 1410.14 1904.7 1615.8 1742.19 1802.28 1455.54 1866.75 1147.05 1841.71 887.57 1740.48 588.13 1507.64 372.88 1190.62 271.11 853.36 271.11 589.62 346.24"/><path class="cls-2" d="M393.2,1100.11,747.4,776.69l-21.77-65.5S662.71,535.38,605.25,480.67,434.56,360.85,357.76,364.6s-160,25-238.78,99.5S17.66,605.81,7.09,667.46,25.38,856.77,111.33,947.67s232.34,130.4,232.34,130.4Z"/><path class="cls-2" d="M399.59,1082.59,726.85,773.17l51.57,54.54s846.94,1041.44,904.74,1084.35c0,0-71.84,142.54-203,192,0,0-944.13-906.82-1024.23-964.09a18.65,18.65,0,0,0-4.75-2.8Z"/><path class="cls-3" d="M1140.75,11.81l40-6v48l25,35,33,6,42,13,28,27,32,16,21,44,14,44-9,40,41,49-12,60,22,31,41,17,15,37,23-11-9-50,29-22,16,55,18,63,31,41,38,25,67,25h33l53-39,23-20,45-11,34,20-21,59-9,77-29,37-23,35,13,36-53-12-42,12-30,27-16,36,16,21,13,9-13,36-29,51-25,45-28,47-26,44-20,39-40,31-27,18-23,12-13-38-24-10-4,16-39-27,38-47,33-60,1-50s-16-51-17-55-21-20-21-20l-60-28-50-26-23-19-9-34,22-25,42-16,36-22,11-53,5-42,10-37,7-35-12-50-7-47-17-29-15-32-15-44-20-45-26-34-26-49-37-42-31-46-10-29,3-21-18-42-25-34Z"/><path class="cls-3" d="M1298.75,1056.81l7,31,32,16,13,22-8,20-18,19v42l17,8,9,14-26,32-26,46-30,30-16,37-13,29-18,22-28,18-37,22v54l25,18,23,27-19,16-45-14-37,14-79,28-52,41-7,42-9,54-18,39-18,17v33l-17,21-25,37,24,10-7,25-38-6-26,30-21,32-52,42-35,12h-42l-46-10-27,10s-20-16-21-20-12-28-12-28l-39-3-23-25-30-7-20,21-63-14-31-36v-35l19-38,27-51,46-56,43-34,34-27,35-47,33-40,48-2,36-34,51-25,44-33,46-35,64-48,41-50,28-47,22-48,8-47,47-20,32-51,5-56,4-30,28-27,40-28v28l7,28,32-7,9,26-13,30,17,24,31-13,29-20Z"/><path class="cls-3" d="M538.75,2049.81l23,13,13,24v26l-29,13-26,6s-9,14-13,16-26,0-26,0l16-32,17-23,14-14-8-29Z"/></g></g></svg>