<svg xmlns="http://www.w3.org/2000/svg" viewBox="0 0 3415.62 1607.12"><defs><style>.cls-1{fill:#fff;}</style></defs><g id="Layer_2" data-name="Layer 2"><g id="Layer_1-2" data-name="Layer 1"><path class="cls-1" d="M429.42,178H303.28a87.44,87.44,0,0,0-7-28.4,67.36,67.36,0,0,0-15.65-22,68.62,68.62,0,0,0-24.05-14.32q-14.08-5-32-5-31.32,0-52.89,15.21T139,167.07q-11.07,28.41-11.07,68.22,0,42,11.3,70.34T172,348.12q21.48,14.2,51.67,14.2A101.11,101.11,0,0,0,254.52,358a70.91,70.91,0,0,0,23.71-12.64,66.9,66.9,0,0,0,16.44-20,80.56,80.56,0,0,0,8.61-26.51l126.14.9q-2.24,29.07-16.33,59.16t-39.92,55.46q-25.83,25.4-63.85,40.82T221,470.57q-63.08,0-113.06-27.06T29,363.89Q0,311.33,0,235.29q0-76.5,29.52-128.94T109.14,27Q159.24,0,221,0q43.4,0,79.85,11.85t64,34.56a172.57,172.57,0,0,1,44.29,55.8Q425.84,135.32,429.42,178Z"/><path class="cls-1" d="M487.57,464.31V120.77H607.45v65.31H611q9.4-36.22,29.86-53t48-16.78a104.33,104.33,0,0,1,16,1.23A112,112,0,0,1,720.17,121V226.34a110.82,110.82,0,0,0-22.59-4.7,204,204,0,0,0-23-1.56A65,65,0,0,0,642,228.24a59.1,59.1,0,0,0-22.7,22.81Q611,265.71,611,285.38V464.31Z"/><path class="cls-1" d="M905.35,470.57q-55,0-94.72-21.13a145.58,145.58,0,0,1-61.06-60.84q-21.36-39.69-21.36-95.16,0-53.24,21.47-93a153.47,153.47,0,0,1,60.62-62q39.13-22.14,92.37-22.14,38.91,0,70.45,12.08a148.33,148.33,0,0,1,53.9,35q22.37,22.94,34.44,55.58t12.08,73.58v28.63H766.68v-68H959.92a48.56,48.56,0,0,0-7.49-26.06A50.57,50.57,0,0,0,933,209.45a58.7,58.7,0,0,0-27.62-6.37,59.76,59.76,0,0,0-27.51,6.37,52.08,52.08,0,0,0-20,17.56q-7.49,11.19-7.94,26.17v73.36q0,16.54,6.94,29.52a50.22,50.22,0,0,0,19.9,20.35q13,7.38,31.31,7.38a72.7,72.7,0,0,0,23.37-3.58,51.48,51.48,0,0,0,18.23-10.4,40.92,40.92,0,0,0,11.19-16.43h112.72q-5.82,35.78-27.51,62.06t-57.37,40.71Q953,470.57,905.35,470.57Z"/><path class="cls-1" d="M1437.64,232.6H1324a31.19,31.19,0,0,0-7.38-18.11A42.51,42.51,0,0,0,1300,202.74a59.35,59.35,0,0,0-22.48-4.13q-15.88,0-27.28,5.81T1239,221q-.22,7.6,6.6,14.09t26.51,10.07l69.78,12.52q52.77,9.62,78.61,32.32t26.06,60.72q-.22,36.69-21.81,63.63T1366,455.92q-37.24,14.65-84.88,14.65-78.72,0-123.12-32.21t-49.54-85H1231a34.76,34.76,0,0,0,16.22,25.16q13.75,8.83,34.78,8.83,17,0,28.06-5.81t11.3-16.55q-.22-9.84-9.73-15.66T1282,340l-60.84-10.74q-52.56-9.17-78.72-34.89t-26-66.2q-.23-35.79,18.9-60.72t54.8-38q35.67-13.08,84.65-13.08,74.48,0,117.53,30.87T1437.64,232.6Z"/><path class="cls-1" d="M1659.5,470.57q-55.92,0-95.72-22.25a151.3,151.3,0,0,1-61.06-62.18q-21.26-39.92-21.25-92.7t21.25-92.71a151.36,151.36,0,0,1,61.06-62.18q39.79-22.25,95.72-22.25,50.55,0,87.56,18.23T1804.43,186q20.35,33.21,20.58,77.94H1710.49Q1708,236.85,1695,222.65t-33.66-14.2a44.93,44.93,0,0,0-28.18,9.28q-12.08,9.28-18.79,28t-6.71,46.85q0,28.18,6.71,46.86t18.79,28a44.94,44.94,0,0,0,28.18,9.29,45.63,45.63,0,0,0,24.15-6.38q10.51-6.37,17.12-18.79t7.93-30.3H1825q-.67,45.4-20.8,79.06t-56.92,52Q1710.5,470.57,1659.5,470.57Z"/><path class="cls-1" d="M2040.6,470.57q-55,0-94.72-21.13a145.56,145.56,0,0,1-61.05-60.84q-21.36-39.69-21.36-95.16,0-53.24,21.47-93a153.39,153.39,0,0,1,60.61-62q39.14-22.14,92.37-22.14,38.91,0,70.45,12.08a148.33,148.33,0,0,1,53.9,35q22.36,22.94,34.44,55.58t12.08,73.58v28.63H1901.94v-68h193.23a48.48,48.48,0,0,0-7.49-26.06,50.57,50.57,0,0,0-19.46-17.67,58.67,58.67,0,0,0-27.62-6.37,59.76,59.76,0,0,0-27.51,6.37,52,52,0,0,0-20,17.56q-7.5,11.19-7.94,26.17v73.36q0,16.54,6.93,29.52a50.29,50.29,0,0,0,19.9,20.35q13,7.38,31.32,7.38a72.74,72.74,0,0,0,23.37-3.58,51.48,51.48,0,0,0,18.23-10.4,41,41,0,0,0,11.18-16.43h112.72q-5.82,35.78-27.51,62.06t-57.37,40.71Q2088.24,470.57,2040.6,470.57Z"/><path class="cls-1" d="M2382.34,271.07V464.31H2258.88V120.77h117.2v65.31h3.58q11.18-32.65,39.47-51.22t66.09-18.56q36.45,0,63.41,16.66a113.35,113.35,0,0,1,41.82,45.74q14.88,29.09,14.65,66.43V464.31H2481.64V271.07q.22-25.5-12.86-40t-36.34-14.54q-15.21,0-26.5,6.6a43.64,43.64,0,0,0-17.34,18.78Q2382.57,254.08,2382.34,271.07Z"/><path class="cls-1" d="M2790.28,468.78a124.71,124.71,0,0,1-67.43-19.23q-30.75-19.23-49.2-58.38t-18.45-98.63q0-62.18,19.34-101.09t50.1-57q30.75-18.12,64.75-18.12,25.5,0,44.73,8.84a95.86,95.86,0,0,1,32.21,23.48A105.17,105.17,0,0,1,2886,180.71h1.79V6.26h123.46V464.31H2888.69V408H2886a98.22,98.22,0,0,1-20.47,31.2,95.73,95.73,0,0,1-32.2,21.69Q2814.44,468.78,2790.28,468.78ZM2835.91,374q17,0,29.19-9.95t18.78-28.18q6.6-18.22,6.6-43.28,0-25.5-6.6-43.72t-18.78-28q-12.2-9.74-29.19-9.73t-29,9.73q-12,9.73-18.34,28t-6.38,43.72q0,25.5,6.38,43.73t18.34,28Q2818.91,374,2835.91,374Z"/><path class="cls-1" d="M3237.59,470.57q-55.92,0-95.72-22.25a151.36,151.36,0,0,1-61.06-62.18q-21.26-39.92-21.25-92.7t21.25-92.71a151.42,151.42,0,0,1,61.06-62.18q39.81-22.25,95.72-22.25t95.73,22.25a151.46,151.46,0,0,1,61,62.18q21.26,39.93,21.25,92.71t-21.25,92.7a151.4,151.4,0,0,1-61,62.18Q3293.5,470.58,3237.59,470.57Zm.9-91.25a38.6,38.6,0,0,0,27.06-10.51q11.4-10.51,17.67-30t6.26-46.3q0-27.06-6.26-46.41t-17.67-29.86a38.64,38.64,0,0,0-27.06-10.51,41.39,41.39,0,0,0-28.41,10.51q-11.85,10.53-18.11,29.86t-6.27,46.41q0,26.83,6.27,46.3t18.11,30Q3221.93,379.33,3238.49,379.32Z"/><path class="cls-1" d="M1.79,514H156.56L263,773.46h5.37L374.85,514H529.62V972.07H408V707.26h-3.58l-102,261.23H229l-102-263h-3.58v266.6H1.79Z"/><path class="cls-1" d="M813.21,821.77V628.53H936.66V972.07H819.47V906.76h-3.58q-11.19,32.88-39.14,51.33t-66.43,18.45q-36,0-63-16.55a112.48,112.48,0,0,1-41.82-45.63q-14.88-29.07-15.1-66.64V628.53H713.9V821.77q.23,25.5,13.09,40t36.12,14.53q15.43,0,26.72-6.59A44.33,44.33,0,0,0,807.28,851Q813.43,838.77,813.21,821.77Z"/><path class="cls-1" d="M1313.29,740.36H1199.68a31.35,31.35,0,0,0-7.38-18.12,42.62,42.62,0,0,0-16.67-11.74,59.26,59.26,0,0,0-22.47-4.14q-15.89,0-27.29,5.82t-11.18,16.55q-.23,7.6,6.6,14.09t26.5,10.07l69.78,12.52q52.79,9.62,78.62,32.32t26,60.72q-.23,36.69-21.81,63.63t-58.82,41.6q-37.23,14.64-84.87,14.65-78.73,0-123.13-32.21t-49.54-85h122.57a34.75,34.75,0,0,0,16.21,25.17q13.76,8.84,34.78,8.83,17,0,28.07-5.81T1197,872.76q-.23-9.82-9.73-15.65t-29.63-9.39L1096.8,837q-52.56-9.16-78.73-34.89t-26-66.2q-.23-35.79,18.9-60.72t54.8-38q35.67-13.08,84.65-13.08,74.47,0,117.53,30.86T1313.29,740.36Z"/><path class="cls-1" d="M1369.65,972.07V628.53h123.46V972.07Zm61.73-379.32q-25.05,0-42.94-16.55t-17.9-39.81q0-23.26,17.9-39.81T1431.38,480q25.27,0,43,16.55t17.78,39.81q0,23.26-17.78,39.81T1431.38,592.75Z"/><path class="cls-1" d="M1721.23,978.33q-55.92,0-95.73-22.25a151.42,151.42,0,0,1-61.06-62.18Q1543.2,854,1543.2,801.19t21.24-92.7a151.42,151.42,0,0,1,61.06-62.18q39.81-22.24,95.73-22.25,50.54,0,87.56,18.23t57.37,51.44q20.34,33.21,20.57,77.94H1772.22q-2.46-27.06-15.54-41.26T1723,716.21a44.91,44.91,0,0,0-28.18,9.28q-12.09,9.28-18.79,28t-6.71,46.86q0,28.19,6.71,46.86t18.79,28A44.92,44.92,0,0,0,1723,884.4a45.66,45.66,0,0,0,24.15-6.38q10.51-6.37,17.11-18.79t7.94-30.3h114.51q-.66,45.41-20.8,79.06T1809,960Q1772.22,978.32,1721.23,978.33Z"/><path class="cls-1" d="M1.79,1479.83v-458H199.5q51,0,89.24,20.13t59.49,56.58q21.25,36.46,21.25,85.22,0,49.2-21.81,85.21t-61.06,55.47q-39.24,19.45-91.58,19.45H76.94v-96.62h93q21.92,0,37.46-7.71a55.79,55.79,0,0,0,23.93-22q8.38-14.31,8.39-33.77,0-19.68-8.39-33.66a55,55,0,0,0-23.93-21.47q-15.54-7.5-37.46-7.5H126.14v358.75Z"/><path class="cls-1" d="M416.89,1479.83V1136.29H536.77v65.31h3.58q9.39-36.24,29.86-53t48-16.77a104.46,104.46,0,0,1,16,1.23,113.49,113.49,0,0,1,15.32,3.46v105.35a110.3,110.3,0,0,0-22.59-4.7,204.23,204.23,0,0,0-23-1.57,64.93,64.93,0,0,0-32.54,8.17,59,59,0,0,0-22.7,22.81q-8.28,14.65-8.28,34.33v178.93Z"/><path class="cls-1" d="M835.57,1486.09q-55.92,0-95.72-22.26a151.28,151.28,0,0,1-61.06-62.17q-21.25-39.93-21.25-92.71t21.25-92.7a151.3,151.3,0,0,1,61.06-62.18q39.79-22.24,95.72-22.25t95.72,22.25a151.36,151.36,0,0,1,61.06,62.18q21.25,39.91,21.25,92.7t-21.25,92.71a151.34,151.34,0,0,1-61.06,62.17Q891.48,1486.09,835.57,1486.09Zm.89-91.25a38.6,38.6,0,0,0,27.07-10.51q11.4-10.51,17.67-30t6.26-46.3q0-27.06-6.26-46.41t-17.67-29.86a38.65,38.65,0,0,0-27.07-10.51,41.38,41.38,0,0,0-28.4,10.51q-11.85,10.51-18.12,29.86t-6.26,46.41q0,26.84,6.26,46.3t18.12,30Q819.91,1394.84,836.46,1394.84Z"/><path class="cls-1" d="M1063.7,1136.29h123.46v353.38q0,45.16-19,71.45T1114.58,1598q-34.56,10.62-81.3,8.83-4.69-.22-9.84-.22t-12.52-.67v-91.25c3,.29,5.55.52,7.71.67s4.36.22,6.6.22q22.14,0,30.31-6.82t8.16-21.81Zm61.73-35.78q-25,0-42.94-16.55t-17.9-39.81q0-23.26,17.9-39.82t42.94-16.55q25.27,0,43,16.55t17.78,39.82q0,23.25-17.78,39.81T1125.43,1100.51Z"/><path class="cls-1" d="M1414.38,1486.09q-55,0-94.72-21.14a145.53,145.53,0,0,1-61.05-60.83q-21.36-39.7-21.36-95.17,0-53.22,21.47-93a153.36,153.36,0,0,1,60.61-62q39.14-22.14,92.37-22.14,38.91,0,70.45,12.08a148.33,148.33,0,0,1,53.9,35q22.37,22.92,34.44,55.58t12.08,73.58v28.63H1275.72v-68H1469a48.45,48.45,0,0,0-7.49-26.06A50.57,50.57,0,0,0,1442,1225a58.67,58.67,0,0,0-27.62-6.37,59.76,59.76,0,0,0-27.51,6.37,51.9,51.9,0,0,0-20,17.56q-7.5,11.17-7.94,26.17v73.35q0,16.56,6.93,29.53a50.29,50.29,0,0,0,19.9,20.35q13,7.38,31.32,7.38a72.74,72.74,0,0,0,23.37-3.58,51.48,51.48,0,0,0,18.23-10.4,41,41,0,0,0,11.18-16.44h112.72q-5.82,35.79-27.51,62.07t-57.37,40.7Q1462,1486.09,1414.38,1486.09Z"/><path class="cls-1" d="M1798.17,1486.09q-55.92,0-95.73-22.26a151.4,151.4,0,0,1-61.06-62.17q-21.24-39.93-21.24-92.71t21.24-92.7a151.42,151.42,0,0,1,61.06-62.18q39.81-22.24,95.73-22.25,50.53,0,87.56,18.23t57.37,51.44q20.34,33.21,20.57,77.94H1849.16q-2.46-27.06-15.54-41.26T1800,1224a44.92,44.92,0,0,0-28.18,9.29q-12.09,9.29-18.79,28t-6.71,46.86q0,28.18,6.71,46.85t18.79,28a44.91,44.91,0,0,0,28.18,9.28,45.65,45.65,0,0,0,24.15-6.37q10.52-6.37,17.11-18.79t7.94-30.3h114.51q-.66,45.4-20.8,79.06t-56.92,52Q1849.16,1486.08,1798.17,1486.09Z"/><path class="cls-1" d="M2219.53,1136.29v89.46H1993.19v-89.46ZM2037,1054h123.46v315.35a26.14,26.14,0,0,0,2.46,12,15.42,15.42,0,0,0,7.61,7.15q5.13,2.36,13.19,2.35a75.83,75.83,0,0,0,13.08-1.34q7.5-1.35,11.08-2.24l17.89,86.78q-8.28,2.46-23.6,6a212,212,0,0,1-36.34,4.7q-42.49,2.24-71.35-8.84t-43.39-35Q2036.58,1417,2037,1381Z"/></g></g></svg>